<?xml version="1.0" standalone="no"?>
<!DOCTYPE svg PUBLIC "-//W3C//DTD SVG 20010904//EN"
 "http://www.w3.org/TR/2001/REC-SVG-20010904/DTD/svg10.dtd">
<svg version="1.0" xmlns="http://www.w3.org/2000/svg"
 width="1280.000000pt" height="768.000000pt" viewBox="0 0 1280.000000 768.000000"
 preserveAspectRatio="xMidYMid meet">
<g transform="translate(0.000000,768.000000) scale(0.100000,-0.100000)"
fill="#000000" stroke="none">
<path d="M0 3840 l0 -3840 6400 0 6400 0 0 3840 0 3840 -6400 0 -6400 0 0
-3840z m8801 1554 c12 -11 25 -14 36 -9 24 11 51 6 78 -11 19 -12 27 -12 60 1
20 9 45 13 54 9 9 -3 66 -8 126 -11 230 -10 234 -11 251 -47 9 -17 29 -38 46
-45 17 -8 33 -22 36 -33 6 -24 73 -59 109 -57 39 2 123 -17 136 -30 7 -7 11
-170 12 -523 4 -1025 6 -1673 5 -1696 0 -17 -10 -27 -36 -38 -37 -16 -139 -20
-187 -8 -16 3 -45 2 -65 -4 -21 -6 -54 -14 -75 -17 -25 -4 -53 -20 -80 -44
-53 -48 -78 -61 -105 -54 -27 7 -112 -13 -177 -42 -50 -22 -109 -25 -191 -10
-21 3 -35 1 -43 -9 -9 -11 -30 -13 -81 -11 -59 4 -75 1 -115 -21 -40 -23 -54
-26 -113 -21 -84 7 -155 22 -193 42 -16 8 -42 22 -58 30 -16 8 -44 15 -61 15
-42 0 -219 29 -245 40 -57 24 -99 32 -185 36 -106 5 -202 23 -300 58 -86 31
-136 39 -255 41 -169 3 -367 15 -430 25 -81 14 -120 12 -185 -7 -30 -9 -93
-19 -140 -22 -57 -4 -101 -14 -134 -30 -40 -19 -71 -24 -170 -28 -67 -2 -132
0 -146 5 -17 7 -33 6 -50 -3 -34 -18 -150 -22 -177 -7 -29 16 -49 15 -78 -4
-14 -9 -32 -13 -41 -10 -8 3 -24 2 -33 -4 -10 -5 -40 -11 -67 -14 -27 -2 -57
-8 -67 -11 -10 -4 -37 -2 -60 4 -33 9 -63 8 -147 -4 -58 -9 -154 -18 -214 -20
-93 -3 -110 -7 -122 -23 -20 -28 -88 -27 -139 2 -36 21 -47 23 -108 15 -37 -5
-77 -15 -90 -24 -12 -8 -32 -15 -45 -15 -13 0 -38 -6 -55 -14 -85 -38 -161
-44 -497 -40 -179 2 -368 6 -420 8 -52 2 -128 -1 -169 -6 -52 -7 -80 -7 -95 1
-24 13 -146 33 -221 36 l-50 3 -6 223 c-4 123 -7 393 -8 599 -1 351 -11 864
-27 1391 -7 222 -6 226 14 241 12 8 37 13 59 11 24 -1 43 3 55 14 11 10 39 17
71 19 28 1 63 5 77 8 14 4 32 2 40 -3 12 -8 12 -13 -4 -30 -12 -13 -14 -21 -7
-21 13 0 14 1 75 52 33 27 48 33 90 34 28 1 84 4 125 7 67 5 74 4 78 -14 4
-13 11 -18 23 -14 10 3 31 7 46 10 16 2 49 11 73 19 30 11 48 13 55 6 20 -20
65 -11 87 19 18 24 31 30 92 39 40 5 88 10 107 9 47 -1 129 10 186 24 35 9 50
9 69 -1 18 -10 28 -10 37 -2 8 6 34 9 63 6 80 -8 87 -9 143 -1 45 7 52 5 52
-9 0 -14 8 -16 61 -11 48 4 62 2 66 -10 4 -9 17 -14 37 -12 17 1 39 -1 49 -5
44 -16 51 -15 74 6 23 21 25 21 52 5 34 -20 78 -22 118 -5 28 11 136 29 183
29 52 0 148 -10 235 -25 50 -9 113 -19 140 -22 94 -10 110 -13 155 -24 25 -6
53 -18 62 -27 14 -13 23 -14 46 -4 31 13 148 17 335 11 120 -3 129 -2 155 19
15 12 39 26 54 32 14 6 29 17 32 25 7 18 130 19 207 3 40 -9 65 -8 103 1 28 7
74 12 101 12 104 0 277 -12 293 -21 10 -5 30 -7 46 -4 18 4 41 -2 67 -16 29
-16 48 -21 70 -16 16 4 35 2 42 -4 9 -7 26 -5 57 6 48 18 124 20 305 10 95 -5
115 -3 150 13 22 10 86 24 143 30 87 10 108 10 140 -3 55 -22 258 -13 325 14
26 11 56 18 65 15 9 -3 24 -1 32 4 24 15 82 12 101 -6z"/>
</g>
</svg>
